<svg width="47" height="22" viewBox="0 0 47 22" fill="none" xmlns="http://www.w3.org/2000/svg">
<path d="M7.35498 11.8823L7.8199 12.5688H11.6005L12.2937 13.7871L15.4507 11.3083C16.7023 11.5274 17.9362 11.8397 19.1423 12.2424C19.1423 12.2424 19.1423 12.2199 19.1423 12.2115C19.1785 12.1524 19.2703 12.1186 19.3065 12.2115C19.3065 12.2452 19.2731 12.2734 19.2564 12.2396C19.2424 12.2527 19.2319 12.2691 19.2258 12.2874C20.9964 12.8952 22.8867 13.8124 23.6801 15.1011C23.8997 16.8171 24.2355 18.5158 24.6851 20.1854L24.3037 20.3739C24.2956 20.4311 24.2796 20.487 24.2564 20.5399C24.2427 20.5651 24.2226 20.5862 24.1981 20.6009C24.1736 20.6155 24.1457 20.6233 24.1172 20.6233C24.0887 20.6233 24.0608 20.6155 24.0363 20.6009C24.0118 20.5862 23.9917 20.5651 23.978 20.5399L22.1879 21.4206L19.5905 21.5106C19.5889 21.5248 19.5843 21.5385 19.5771 21.5508C19.5699 21.5631 19.5602 21.5738 19.5486 21.582C19.537 21.5903 19.5239 21.5959 19.51 21.5986C19.4961 21.6014 19.4818 21.6011 19.468 21.5978C19.4521 21.591 19.4378 21.581 19.4258 21.5684C19.4138 21.5559 19.4045 21.541 19.3984 21.5247L5.35889 22.0002H19.7993C19.7803 21.8973 19.794 21.7909 19.8382 21.6963C19.8499 21.6775 19.8667 21.6625 19.8865 21.6531C19.9064 21.6437 19.9285 21.6403 19.9502 21.6433C19.972 21.6463 19.9924 21.6555 20.0091 21.6699C20.0257 21.6843 20.038 21.7032 20.0443 21.7244C20.0648 21.8171 20.0648 21.9132 20.0443 22.0058H22.4524C22.4524 21.9186 22.4524 21.8314 22.4524 21.7554C22.4574 21.7183 22.4755 21.6843 22.5034 21.6597C22.5313 21.635 22.5671 21.6215 22.6041 21.6215C22.6412 21.6215 22.6769 21.635 22.7048 21.6597C22.7327 21.6843 22.7509 21.7183 22.7558 21.7554C22.7558 21.8314 22.7558 21.9186 22.7558 22.0058H23.4936C23.4936 21.8904 23.5131 21.7779 23.5298 21.6653C23.5405 21.6329 23.5611 21.6047 23.5886 21.5847C23.616 21.5647 23.649 21.554 23.6829 21.554C23.7167 21.554 23.7497 21.5647 23.7772 21.5847C23.8047 21.6047 23.8253 21.6329 23.836 21.6653C23.836 21.7779 23.8638 21.8904 23.8722 22.0058H26.0994C26.1028 21.9163 26.1168 21.8275 26.1411 21.7413C26.1454 21.7219 26.1535 21.7036 26.165 21.6875C26.1765 21.6713 26.1912 21.6577 26.2081 21.6475C26.2249 21.6373 26.2437 21.6307 26.2632 21.628C26.2827 21.6254 26.3025 21.6268 26.3215 21.6322C26.3404 21.6375 26.3581 21.6467 26.3734 21.6592C26.3887 21.6717 26.4013 21.6872 26.4105 21.7048C26.4197 21.7224 26.4252 21.7417 26.4268 21.7615C26.4283 21.7813 26.4259 21.8013 26.4195 21.8201C26.4195 21.8792 26.4195 21.9439 26.4195 22.0058H29.6545C29.6831 21.9774 29.7216 21.9616 29.7617 21.9616C29.8017 21.9616 29.8402 21.9774 29.8688 22.0058H31.1662C31.1637 21.9256 31.1789 21.8458 31.2107 21.7723C31.2205 21.7559 31.2337 21.742 31.2496 21.7315C31.2654 21.7211 31.2833 21.7144 31.3021 21.712C31.3208 21.7095 31.3399 21.7114 31.3578 21.7175C31.3757 21.7235 31.3921 21.7336 31.4056 21.7469C31.4625 21.8226 31.4902 21.9166 31.4835 22.0114H46.3972C46.4124 21.9896 46.4337 21.9729 46.4584 21.9636L43.6355 21.7779C43.6184 21.8052 43.5944 21.8273 43.566 21.842C43.5375 21.8567 43.5057 21.8633 43.4738 21.8613C43.442 21.8593 43.4112 21.8487 43.3848 21.8305C43.3584 21.8124 43.3373 21.7874 43.3237 21.7582L41.3026 21.6231V21.6034C41.2719 21.5924 41.2449 21.5729 41.2246 21.5472C41.2028 21.5103 41.1886 21.4694 41.1828 21.4268C41.1771 21.3843 41.1799 21.341 41.1912 21.2996C41.2036 21.227 41.2365 21.1596 41.2859 21.1054C41.2945 21.0988 41.3038 21.0931 41.3137 21.0885C41.3137 20.8072 41.3137 20.4667 41.3137 20.101C41.233 20.101 41.2051 20.0137 41.194 19.9434C41.169 19.8408 41.169 19.7336 41.194 19.6311C41.203 19.6088 41.2166 19.5888 41.2339 19.5723C41.2512 19.5558 41.2717 19.5432 41.2942 19.5354C41.2906 19.08 41.2241 18.6273 41.0965 18.1905C40.8181 17.5293 40.434 16.3841 40.3282 16.0662C40.3207 16.0956 40.3095 16.124 40.2948 16.1506C40.2815 16.1722 40.2605 16.1878 40.2361 16.1941C40.2117 16.2004 40.1858 16.1969 40.1639 16.1843C39.9857 16.0662 39.9802 15.7539 39.9913 15.5625C39.9912 15.5422 39.9976 15.5224 40.0097 15.5061C40.0218 15.4898 40.0388 15.478 40.0581 15.4725C40.2001 15.419 40.2474 15.6075 40.2781 15.706C40.292 15.7482 40.3059 15.7961 40.317 15.8439C40.4757 14.6059 41.4724 5.24202 35.6149 2.13575C29.326 -1.20688 21.208 2.05415 18.2959 0.371582C16.3165 1.96411 12.4496 4.7018 11.169 4.15314C11.1523 4.09255 11.129 4.03404 11.0994 3.97869C11.0994 3.94493 11.0994 3.93086 11.0771 3.93649C10.9713 3.75707 10.8102 3.61761 10.6185 3.53941C10.4268 3.46122 10.2151 3.44859 10.0156 3.50345C9.81619 3.55831 9.63999 3.67764 9.51396 3.84322C9.38793 4.00881 9.31899 4.21153 9.31767 4.42044C9.31732 4.55279 9.34438 4.68376 9.39712 4.8049C9.44986 4.92605 9.52712 5.0347 9.62391 5.12385L9.58772 5.1548C9.58772 5.1548 9.48193 5.2983 9.33716 5.54027C9.35537 5.55768 9.36898 5.57941 9.37676 5.60349C9.38454 5.62757 9.38624 5.65323 9.3817 5.67814C9.36105 5.76024 9.33309 5.84029 9.29819 5.9173C9.27809 5.98554 9.23717 6.04562 9.18126 6.08894C9.17068 6.09511 9.15868 6.09836 9.14646 6.09836C9.13424 6.09836 9.12224 6.09511 9.11166 6.08894C9.09386 6.07518 9.07795 6.05909 9.06433 6.0411C8.72373 6.71426 8.53365 7.45483 8.50754 8.21043C8.54288 8.34658 8.56341 8.48621 8.56879 8.62686C8.57059 8.66147 8.55969 8.69553 8.53817 8.72252C8.53817 8.81256 8.56044 8.90259 8.57714 9.00389C7.8199 9.727 7.3522 10.1547 7.06267 10.4107C7.09048 10.3952 7.12315 10.3913 7.15379 10.3997C7.18444 10.4081 7.21065 10.4282 7.22692 10.4557C7.30766 10.5711 7.37169 10.7568 7.26033 10.8722C7.2492 10.8842 7.23501 10.893 7.21929 10.8974C7.20358 10.9019 7.18696 10.9019 7.17124 10.8975C7.01813 10.8496 6.98193 10.6583 6.99585 10.5176C6.99598 10.4928 7.00486 10.4689 7.02091 10.4501C6.89263 10.5778 6.75177 10.6918 6.60053 10.7906L7.24641 11.7388C7.29304 11.7775 7.33019 11.8266 7.35498 11.8823ZM42.2575 21.792C42.2704 21.7791 42.2865 21.7698 42.304 21.765C42.3216 21.7602 42.3401 21.76 42.3577 21.7645C42.3753 21.7691 42.3915 21.7781 42.4047 21.7908C42.4178 21.8035 42.4275 21.8194 42.4328 21.837C42.4371 21.8538 42.437 21.8715 42.4326 21.8883C42.4281 21.9051 42.4195 21.9205 42.4074 21.9329C42.3954 21.9453 42.3804 21.9544 42.3639 21.9593C42.3474 21.9642 42.3299 21.9647 42.3131 21.9608C42.2963 21.9562 42.2809 21.9474 42.2683 21.9353C42.2556 21.9232 42.2461 21.9081 42.2406 21.8914C42.2351 21.8747 42.2337 21.8569 42.2367 21.8396C42.2396 21.8222 42.2468 21.8059 42.2575 21.792ZM40.537 18.4493C40.5704 18.2383 40.8905 18.3565 40.8516 18.5197C40.8807 18.7306 40.8807 18.9446 40.8516 19.1556C40.845 19.1844 40.8305 19.2107 40.8099 19.2316C40.7892 19.2525 40.7631 19.2671 40.7346 19.2737C40.7053 19.2808 40.6748 19.2808 40.6455 19.2737C40.6177 19.2657 40.5924 19.2507 40.5719 19.23C40.5514 19.2093 40.5365 19.1837 40.5286 19.1556C40.4826 18.9221 40.4854 18.6816 40.537 18.4493ZM40.5982 20.1826C40.6595 20.0616 40.8154 20.115 40.8599 20.2163C40.9175 20.3665 40.9369 20.5288 40.9165 20.6886C40.8961 20.8483 40.8364 21.0003 40.743 21.1308C40.7359 21.1396 40.727 21.1467 40.7169 21.1516C40.7068 21.1564 40.6957 21.159 40.6845 21.159C40.6733 21.159 40.6622 21.1564 40.6521 21.1516C40.642 21.1467 40.6331 21.1396 40.6261 21.1308C40.5413 20.9884 40.4942 20.8264 40.4893 20.6603C40.4844 20.4943 40.5219 20.3297 40.5982 20.1826ZM31.5225 20.2501C31.4955 20.2418 31.4719 20.225 31.4548 20.2023C31.4378 20.1796 31.4284 20.152 31.4279 20.1235C31.4256 20.0198 31.433 19.9162 31.4501 19.814C31.4512 19.7862 31.462 19.7597 31.4805 19.7391C31.4991 19.7186 31.5242 19.7053 31.5514 19.7016C31.5787 19.6979 31.6064 19.7041 31.6296 19.7189C31.6528 19.7338 31.6701 19.7565 31.6784 19.783C31.7289 19.9142 31.7289 20.0598 31.6784 20.191C31.6642 20.2187 31.6409 20.2406 31.6124 20.253C31.584 20.2653 31.5522 20.2672 31.5225 20.2585V20.2501ZM31.7174 17.8472C31.7897 18.002 31.8268 18.1712 31.826 18.3424C31.8442 18.4265 31.8401 18.514 31.8142 18.596C31.7883 18.678 31.7415 18.7516 31.6784 18.8095C31.6691 18.8186 31.6566 18.8237 31.6436 18.8237C31.6306 18.8237 31.6182 18.8186 31.6088 18.8095C31.56 18.7497 31.5239 18.6803 31.5028 18.6058C31.4817 18.5312 31.4761 18.453 31.4863 18.3762C31.4696 18.2097 31.4696 18.0419 31.4863 17.8754C31.5114 17.7544 31.6617 17.7712 31.7174 17.8472ZM31.5002 16.6008C31.4981 16.5296 31.5134 16.4591 31.5448 16.3954C31.5526 16.3832 31.5633 16.3732 31.576 16.3662C31.5886 16.3593 31.6028 16.3556 31.6172 16.3556C31.6316 16.3556 31.6457 16.3593 31.6584 16.3662C31.671 16.3732 31.6817 16.3832 31.6896 16.3954C31.7219 16.4588 31.7382 16.5294 31.7369 16.6008C31.7369 16.6325 31.7244 16.6629 31.7022 16.6853C31.68 16.7077 31.6499 16.7203 31.6186 16.7203C31.5872 16.7203 31.5571 16.7077 31.5349 16.6853C31.5127 16.6629 31.5002 16.6325 31.5002 16.6008ZM31.8761 21.2039C31.8643 21.2148 31.8489 21.2208 31.8329 21.2208C31.817 21.2208 31.8016 21.2148 31.7898 21.2039C31.7907 21.217 31.7907 21.2302 31.7898 21.2433V21.1927C31.755 21.1543 31.7356 21.1041 31.7356 21.052C31.7356 20.9999 31.755 20.9497 31.7898 20.9113C31.8099 20.8939 31.8356 20.8843 31.8622 20.8843C31.8887 20.8843 31.9144 20.8939 31.9345 20.9113C31.961 20.9567 31.9696 21.0105 31.9588 21.062C31.948 21.1136 31.9185 21.1592 31.8761 21.1898V21.2039ZM32.3577 19.1331C32.3271 19.2625 32.3577 19.3947 32.3271 19.5213C32.3185 19.5475 32.3028 19.5707 32.2818 19.5883C32.2607 19.6059 32.2352 19.617 32.2081 19.6206C32.1811 19.6241 32.1536 19.6198 32.1288 19.6082C32.104 19.5967 32.083 19.5782 32.0682 19.5551C32.0423 19.4692 32.0344 19.3789 32.0449 19.2897C32.0555 19.2006 32.0842 19.1147 32.1294 19.0374C32.1907 18.8883 32.3911 18.9867 32.3577 19.1331ZM32.9952 18.5309C32.9827 18.5522 32.9642 18.5693 32.9421 18.5801C32.92 18.5909 32.8953 18.5948 32.871 18.5916C32.8467 18.5883 32.8239 18.5778 32.8054 18.5615C32.7869 18.5453 32.7735 18.5239 32.7669 18.5C32.748 18.4072 32.748 18.3114 32.7669 18.2186C32.768 18.1973 32.7757 18.1769 32.789 18.1603C32.8022 18.1436 32.8203 18.1317 32.8407 18.126C32.861 18.1204 32.8826 18.1215 32.9024 18.129C32.9222 18.1365 32.9391 18.1502 32.9507 18.168C32.9863 18.2178 33.009 18.2758 33.0168 18.3367C33.0246 18.3976 33.0172 18.4596 32.9952 18.5169V18.5309ZM32.831 14.7212C32.803 14.6567 32.7916 14.5861 32.7976 14.5158C32.7975 14.4461 32.7919 14.3765 32.7809 14.3076C32.7809 14.2429 32.8672 14.2429 32.8894 14.3076C32.9582 14.4225 33.0081 14.548 33.037 14.679C33.0318 14.7012 33.0201 14.7212 33.0034 14.7365C32.9867 14.7518 32.9659 14.7616 32.9435 14.7646C32.9212 14.7677 32.8985 14.7638 32.8784 14.7535C32.8583 14.7433 32.8418 14.7271 32.831 14.7072V14.7212ZM39.9857 19.0993C39.9961 19.0882 40.0087 19.0794 40.0226 19.0734C40.0364 19.0674 40.0514 19.0643 40.0665 19.0643C40.0816 19.0643 40.0965 19.0674 40.1104 19.0734C40.1243 19.0794 40.1368 19.0882 40.1472 19.0993C40.189 19.1463 40.2188 19.2029 40.2338 19.2643C40.2489 19.3256 40.2488 19.3897 40.2335 19.451C40.2335 19.5945 40.2335 19.7324 40.2335 19.8815C40.2325 19.9086 40.2221 19.9345 40.2041 19.9546C40.186 19.9747 40.1616 19.9877 40.135 19.9914C40.1084 19.9951 40.0814 19.9892 40.0587 19.9748C40.036 19.9603 40.019 19.9383 40.0108 19.9124C39.9752 19.7699 39.9491 19.6252 39.9329 19.4791C39.905 19.3272 39.8772 19.1921 39.9857 19.0852V19.0993ZM37.9395 10.5345C38.0176 10.6089 38.0677 10.7083 38.0815 10.8159C38.0893 10.8645 38.0816 10.9144 38.0596 10.9584C38.0376 11.0023 38.0024 11.0381 37.959 11.0607C37.9459 11.0646 37.932 11.0649 37.9187 11.0614C37.9055 11.0579 37.8934 11.0509 37.8839 11.041C37.8458 10.9898 37.8209 10.9299 37.8115 10.8665C37.8015 10.8016 37.7768 10.74 37.7391 10.6865C37.6528 10.5542 37.8421 10.4107 37.9395 10.5204V10.5345ZM37.5108 15.3937C37.469 15.571 37.5108 15.7932 37.366 15.9311C37.3598 15.9374 37.3525 15.9424 37.3443 15.9458C37.3362 15.9492 37.3275 15.951 37.3187 15.951C37.3099 15.951 37.3012 15.9492 37.2931 15.9458C37.285 15.9424 37.2776 15.9374 37.2714 15.9311C37.0988 15.7764 37.1962 15.5063 37.2714 15.3234C37.285 15.299 37.306 15.2797 37.3314 15.2684C37.3567 15.2572 37.385 15.2545 37.412 15.2609C37.4389 15.2672 37.4631 15.2822 37.481 15.3036C37.4988 15.325 37.5093 15.3517 37.5108 15.3796V15.3937ZM37.4162 9.65947C37.4162 9.73825 37.4162 9.94083 37.2937 9.94083C37.1712 9.94083 37.1823 9.73825 37.1739 9.65947C37.16 9.48784 37.4301 9.49065 37.4162 9.6454V9.65947ZM37.2714 17.2873C37.3285 17.344 37.3623 17.4203 37.366 17.5011C37.3659 17.5357 37.3535 17.569 37.3311 17.5951C37.3086 17.6211 37.2776 17.6381 37.2437 17.6428C37.2099 17.6476 37.1755 17.6399 37.1468 17.6211C37.1181 17.6023 37.0971 17.5737 37.0876 17.5405C37.0819 17.5096 37.0706 17.4801 37.0542 17.4533C36.9624 17.3098 37.1656 17.1635 37.2714 17.2732V17.2873ZM36.8204 10.9509C36.9679 10.9875 36.9067 11.2323 36.8204 11.2717C36.7964 11.2846 36.769 11.2896 36.7421 11.2861C36.7152 11.2826 36.69 11.2706 36.6701 11.252C36.6416 11.2254 36.6223 11.1903 36.615 11.1518C36.6078 11.1133 36.613 11.0735 36.6298 11.0382C36.6466 11.0029 36.6742 10.974 36.7086 10.9558C36.7429 10.9375 36.7821 10.9309 36.8204 10.9369V10.9509ZM36.6617 10.3629C36.6617 10.2222 36.8844 10.2222 36.8733 10.3629C36.8739 10.396 36.8642 10.4285 36.8454 10.4557C36.8372 10.4691 36.8257 10.4801 36.8121 10.4878C36.7984 10.4954 36.7831 10.4994 36.7675 10.4994C36.7519 10.4994 36.7366 10.4954 36.7229 10.4878C36.7093 10.4801 36.6978 10.4691 36.6895 10.4557C36.6678 10.4247 36.6579 10.3867 36.6617 10.3488V10.3629ZM36.5587 6.98649C36.5587 6.86269 36.5587 6.70513 36.6868 6.63197C36.915 6.51661 36.9067 7.36634 36.8983 7.47607C36.8984 7.51493 36.8844 7.55248 36.8591 7.58174C36.8338 7.61099 36.7988 7.62996 36.7607 7.63512C36.7226 7.64028 36.6839 7.63128 36.6519 7.60979C36.6199 7.58829 36.5966 7.55577 36.5865 7.51827C36.5483 7.33522 36.5389 7.14719 36.5587 6.96117V6.98649ZM36.7146 16.6683C36.787 16.7246 36.8594 16.899 36.7452 16.9497C36.6311 17.0003 36.5448 16.8287 36.5392 16.7414C36.5336 16.6542 36.6534 16.6008 36.7146 16.643V16.6683ZM36.0715 5.90886C36.0657 5.81179 36.0849 5.71485 36.1272 5.6275C36.1408 5.60654 36.1602 5.59005 36.183 5.58003C36.2058 5.57002 36.2309 5.56691 36.2554 5.57108C36.2799 5.57526 36.3027 5.58653 36.3209 5.60354C36.3392 5.62055 36.3521 5.64256 36.3583 5.66689C36.3788 5.74383 36.3854 5.82391 36.3777 5.90323C36.3826 5.99775 36.3741 6.09248 36.3527 6.1846C36.3425 6.21374 36.3237 6.23897 36.2988 6.25682C36.2738 6.27468 36.244 6.28426 36.2135 6.28426C36.1829 6.28426 36.1531 6.27468 36.1282 6.25682C36.1033 6.23897 36.0844 6.21374 36.0743 6.1846C36.0595 6.09336 36.0586 6.00039 36.0715 5.90886ZM35.8711 11.3702C35.8933 11.2436 36.0659 11.2661 36.0993 11.3702C36.1615 11.5282 36.1817 11.6999 36.1578 11.8682C36.1216 12.0258 35.924 11.9948 35.8794 11.8682C35.8325 11.7011 35.8296 11.5246 35.8711 11.3561V11.3702ZM35.846 13.6802C35.8523 13.6563 35.8677 13.6359 35.8888 13.6235C35.91 13.6111 35.9351 13.6077 35.9587 13.6141C35.9824 13.6204 36.0025 13.636 36.0148 13.6573C36.0271 13.6787 36.0304 13.7041 36.0242 13.728C35.9991 13.8237 36.0492 13.9025 36.0242 13.9925C36.0196 14.0096 36.0086 14.0241 35.9935 14.0331C35.9784 14.042 35.9604 14.0446 35.9434 14.0403C35.8154 13.9728 35.8154 13.7871 35.846 13.6661V13.6802ZM35.8766 15.2249C35.884 15.2034 35.8984 15.1852 35.9175 15.1732C35.9366 15.1613 35.9592 15.1564 35.9815 15.1594C36.0038 15.1624 36.0244 15.173 36.0397 15.1896C36.0551 15.2061 36.0644 15.2276 36.0659 15.2502C36.0659 15.4021 36.1383 15.6104 36.0353 15.737C36.0131 15.7581 35.9837 15.7699 35.9532 15.7699C35.9227 15.7699 35.8933 15.7581 35.8711 15.737C35.7402 15.6019 35.8209 15.3515 35.8766 15.2108V15.2249ZM35.7541 4.71868C35.7659 4.86846 35.746 5.01905 35.6957 5.16043C35.6837 5.18048 35.6662 5.19657 35.6453 5.20675C35.6244 5.21693 35.601 5.22077 35.578 5.21779C35.555 5.21481 35.5334 5.20514 35.5157 5.18996C35.4981 5.17479 35.4851 5.15475 35.4785 5.13229C35.4647 4.98312 35.4817 4.83267 35.5286 4.69055C35.5342 4.6634 35.5493 4.6392 35.5711 4.62237C35.5929 4.60555 35.62 4.59723 35.6474 4.59894C35.6748 4.60064 35.7007 4.61227 35.7203 4.63168C35.7399 4.65108 35.7519 4.67698 35.7541 4.70462V4.71868ZM35.3505 2.74912C35.3576 2.72144 35.3737 2.69694 35.3961 2.67945C35.4185 2.66196 35.446 2.65248 35.4743 2.65248C35.5027 2.65248 35.5302 2.66196 35.5526 2.67945C35.575 2.69694 35.5911 2.72144 35.5982 2.74912C35.6422 2.90359 35.6517 3.066 35.6261 3.22463C35.6177 3.25021 35.6023 3.27289 35.5818 3.29006C35.5612 3.30723 35.5363 3.31821 35.5099 3.32173C35.4834 3.32526 35.4565 3.32118 35.4323 3.30998C35.408 3.29878 35.3874 3.2809 35.3727 3.2584C35.333 3.17747 35.3109 3.08886 35.3081 2.99856C35.3052 2.90827 35.3215 2.8184 35.356 2.73506L35.3505 2.74912ZM35.0275 5.68377C34.9496 5.77943 35.0275 5.89761 34.9635 6.00171C34.9483 6.0282 34.9234 6.04753 34.8942 6.05544C34.8649 6.06336 34.8338 6.05921 34.8076 6.04392C34.6099 5.937 34.7324 5.62468 34.8549 5.50932C34.8784 5.48934 34.9084 5.47898 34.9391 5.4803C34.9697 5.48162 34.9988 5.49452 35.0205 5.51645C35.0422 5.53838 35.0549 5.56774 35.0562 5.59872C35.0575 5.6297 35.0473 5.66006 35.0275 5.68377ZM34.7268 3.99557C34.7345 3.98299 34.7457 3.97295 34.7589 3.96668C34.7722 3.96042 34.787 3.95819 34.8014 3.96028C34.8159 3.96237 34.8295 3.96869 34.8405 3.97846C34.8514 3.98822 34.8594 4.00102 34.8633 4.01527C34.8776 4.10841 34.886 4.2024 34.8883 4.29664C34.8883 4.37823 34.9245 4.45701 34.8688 4.52736C34.861 4.53531 34.8512 4.54105 34.8404 4.54401C34.8297 4.54697 34.8184 4.54705 34.8076 4.54424C34.6294 4.48234 34.6461 4.10531 34.7268 3.98713V3.99557ZM33.5826 1.93035C33.5877 1.90961 33.5995 1.89119 33.6162 1.87803C33.6328 1.86487 33.6534 1.85772 33.6745 1.85772C33.6957 1.85772 33.7162 1.86487 33.7328 1.87803C33.7495 1.89119 33.7613 1.90961 33.7664 1.93035C33.7945 2.0143 33.8058 2.10307 33.7996 2.19148C33.7934 2.27989 33.7698 2.36616 33.7302 2.44525C33.7248 2.45459 33.7171 2.46234 33.7078 2.46772C33.6985 2.47311 33.688 2.47594 33.6773 2.47594C33.6666 2.47594 33.6561 2.47311 33.6468 2.46772C33.6375 2.46234 33.6298 2.45459 33.6244 2.44525C33.5835 2.36515 33.5588 2.27765 33.5516 2.18781C33.5444 2.09797 33.555 2.00759 33.5826 1.92191V1.93035ZM33.5604 11.5362C33.5604 11.569 33.5475 11.6005 33.5245 11.6237C33.5015 11.6469 33.4704 11.66 33.4379 11.66C33.4054 11.66 33.3742 11.6469 33.3513 11.6237C33.3283 11.6005 33.3154 11.569 33.3154 11.5362C33.3112 11.4894 33.3112 11.4423 33.3154 11.3955C33.3154 11.3634 33.328 11.3326 33.3504 11.3099C33.3729 11.2873 33.4033 11.2745 33.4351 11.2745C33.4668 11.2745 33.4973 11.2873 33.5197 11.3099C33.5422 11.3326 33.5548 11.3634 33.5548 11.3955C33.5609 11.4421 33.5627 11.4892 33.5604 11.5362ZM33.3349 9.67354C33.3437 9.65837 33.3564 9.6458 33.3715 9.63707C33.3866 9.62834 33.4037 9.62374 33.4212 9.62374C33.4386 9.62374 33.4557 9.62834 33.4709 9.63707C33.486 9.6458 33.4986 9.65837 33.5075 9.67354C33.5539 9.79039 33.5674 9.91798 33.5465 10.0421C33.5465 10.1181 33.513 10.2588 33.41 10.2588C33.307 10.2588 33.2848 10.1012 33.282 10.0252C33.267 9.90349 33.2853 9.77991 33.3349 9.66791V9.67354ZM33.1595 8.52838C33.1817 8.61178 33.1874 8.69879 33.1762 8.78442C33.18 8.82603 33.1753 8.868 33.1624 8.9077C33.1495 8.9474 33.1286 8.98398 33.101 9.01514C33.0856 9.02973 33.0661 9.03918 33.0452 9.0422C33.0243 9.04522 33.0029 9.04167 32.9841 9.03202C32.8254 8.9448 32.8505 8.62686 32.9423 8.50024C32.9539 8.48009 32.971 8.46374 32.9915 8.45315C33.012 8.44257 33.0352 8.4382 33.0581 8.44058C33.081 8.44296 33.1028 8.45198 33.1208 8.46655C33.1388 8.48113 33.1522 8.50064 33.1595 8.52275V8.52838ZM32.8505 3.01642C32.8682 2.99855 32.8922 2.98852 32.9173 2.98852C32.9423 2.98852 32.9664 2.99855 32.9841 3.01642C33.0457 3.11103 33.0714 3.22494 33.0565 3.33718C33.0647 3.44613 33.0307 3.55405 32.9618 3.63824C32.9561 3.64483 32.949 3.6501 32.9411 3.65371C32.9332 3.65733 32.9246 3.6592 32.9159 3.6592C32.9072 3.6592 32.8986 3.65733 32.8907 3.65371C32.8828 3.6501 32.8757 3.64483 32.87 3.63824C32.8025 3.55324 32.7688 3.44593 32.7753 3.33718C32.7604 3.22455 32.7872 3.11034 32.8505 3.01642ZM32.87 5.20826C32.9674 5.09571 33.1483 5.20826 33.1038 5.34613C33.0857 5.42953 33.0587 5.51068 33.0231 5.5881C33.0015 5.65564 32.9609 5.71531 32.9061 5.75974C32.8953 5.76519 32.8834 5.76802 32.8713 5.76802C32.8593 5.76802 32.8474 5.76519 32.8365 5.75974C32.6556 5.6275 32.753 5.34613 32.8644 5.20826H32.87ZM32.6779 12.6813C32.6826 12.5899 32.7094 12.5011 32.7558 12.4225C32.7689 12.4005 32.7887 12.3833 32.8123 12.3737C32.8359 12.3641 32.8619 12.3625 32.8864 12.3692C32.911 12.3759 32.9327 12.3905 32.9483 12.4107C32.9639 12.431 32.9726 12.4559 32.973 12.4816C32.9829 12.6269 32.9716 12.7729 32.9395 12.9149C32.9337 12.9368 32.9215 12.9566 32.9046 12.9716C32.8877 12.9866 32.8667 12.9962 32.8444 12.9992C32.8221 13.0022 32.7994 12.9985 32.7792 12.9885C32.7589 12.9785 32.7421 12.9627 32.7308 12.943C32.6851 12.8639 32.6647 12.7726 32.6723 12.6813H32.6779ZM32.444 9.38936C32.5025 9.47155 32.5355 9.56951 32.5387 9.67072C32.5379 9.70057 32.5276 9.72937 32.5093 9.7528C32.491 9.77622 32.4656 9.793 32.4371 9.80062C32.4085 9.80823 32.3783 9.80627 32.3509 9.79502C32.3235 9.78377 32.3005 9.76385 32.2853 9.73825C32.2314 9.65474 32.2042 9.55653 32.2074 9.45689C32.2092 9.43042 32.219 9.40516 32.2355 9.38453C32.252 9.36389 32.2743 9.34887 32.2996 9.3415C32.3248 9.33413 32.3516 9.33477 32.3764 9.34333C32.4013 9.35189 32.4229 9.36796 32.4384 9.38936H32.444ZM31.993 7.75744C32.0292 7.62519 32.1795 7.67021 32.2129 7.75744C32.2144 7.76675 32.2144 7.77626 32.2129 7.78557C32.2549 7.95253 32.282 8.12298 32.2937 8.29484C32.2942 8.33532 32.2801 8.3746 32.254 8.40529C32.2279 8.43599 32.1916 8.45598 32.1519 8.46151C32.1122 8.46704 32.0719 8.45773 32.0385 8.43533C32.0052 8.41292 31.9811 8.37897 31.9707 8.33986C31.917 8.14859 31.9228 7.94524 31.9874 7.75744H31.993ZM31.5726 6.75296C31.584 6.73246 31.6006 6.71539 31.6206 6.70351C31.6407 6.69163 31.6635 6.68537 31.6868 6.68537C31.71 6.68537 31.7329 6.69163 31.7529 6.70351C31.773 6.71539 31.7895 6.73246 31.8009 6.75296C31.8009 6.75296 31.8009 6.76703 31.8009 6.77265V6.79235C31.8338 6.90748 31.8489 7.02708 31.8455 7.14687C31.8575 7.26949 31.8394 7.39323 31.7926 7.50702C31.7863 7.51709 31.7779 7.52564 31.768 7.53208C31.7581 7.53852 31.7469 7.54269 31.7352 7.5443C31.7235 7.54591 31.7117 7.54492 31.7004 7.54139C31.6891 7.53787 31.6788 7.5319 31.6701 7.5239C31.5841 7.41748 31.5294 7.28881 31.5122 7.15253C31.4949 7.01624 31.5159 6.87781 31.5726 6.75296ZM31.4362 8.61279C31.4414 8.59758 31.4502 8.58389 31.4619 8.57292C31.4736 8.56195 31.4877 8.55404 31.5031 8.54987C31.5185 8.54571 31.5346 8.54542 31.5501 8.54903C31.5657 8.55264 31.5801 8.56004 31.5921 8.57058C31.6291 8.60685 31.658 8.65076 31.6767 8.69931C31.6955 8.74786 31.7036 8.79992 31.7007 8.85195C31.7015 8.90284 31.6893 8.95309 31.6655 8.99791C31.6416 9.04273 31.6067 9.08063 31.5643 9.10799C31.5488 9.11683 31.5308 9.12024 31.5132 9.1177C31.4956 9.11516 31.4793 9.1068 31.4668 9.09392C31.4252 9.0211 31.4007 8.93952 31.3954 8.85557C31.3901 8.77163 31.4041 8.68757 31.4362 8.60997V8.61279ZM30.7625 11.4264C30.7667 11.4105 30.7745 11.3958 30.7852 11.3834C30.796 11.371 30.8095 11.3612 30.8246 11.355C30.8396 11.3487 30.856 11.3461 30.8723 11.3472C30.8885 11.3484 30.9043 11.3534 30.9184 11.3617C31.1606 11.4799 31.1968 12.0145 30.9184 12.113C30.8908 12.1204 30.8616 12.1186 30.835 12.108C30.8084 12.0973 30.786 12.0784 30.7708 12.0539C30.7152 11.947 30.7708 11.8485 30.7708 11.7359C30.7584 11.6333 30.7556 11.5296 30.7625 11.4264ZM30.718 10.18C30.7196 10.153 30.7295 10.1272 30.7464 10.1063C30.7632 10.0853 30.7862 10.0702 30.812 10.063C30.8377 10.0559 30.8651 10.0571 30.8902 10.0665C30.9153 10.0758 30.9368 10.0929 30.9518 10.1153C31.0298 10.2306 31.0938 10.4163 30.9852 10.5345C30.9741 10.5466 30.9599 10.5553 30.9442 10.5598C30.9285 10.5643 30.9118 10.5643 30.8961 10.5598C30.743 10.512 30.7068 10.3179 30.718 10.18ZM29.5543 12.4759C29.5807 12.5694 29.5728 12.6693 29.532 12.7573C29.5273 12.7632 29.5214 12.7679 29.5146 12.7712C29.5079 12.7744 29.5005 12.7761 29.493 12.7761C29.4855 12.7761 29.4782 12.7744 29.4714 12.7712C29.4647 12.7679 29.4587 12.7632 29.454 12.7573C29.3916 12.6777 29.3608 12.5773 29.3677 12.4759C29.3622 12.3943 29.5376 12.3803 29.5543 12.4759ZM28.7469 15.208C28.7563 15.1923 28.7696 15.1793 28.7855 15.1703C28.8013 15.1612 28.8192 15.1565 28.8374 15.1565C28.8556 15.1565 28.8735 15.1612 28.8893 15.1703C28.9052 15.1793 28.9184 15.1923 28.9279 15.208C28.9744 15.314 28.9926 15.4304 28.9808 15.5456C28.9743 15.5781 28.9569 15.6074 28.9315 15.6284C28.9062 15.6494 28.8744 15.6609 28.8416 15.6609C28.8088 15.6609 28.777 15.6494 28.7516 15.6284C28.7262 15.6074 28.7088 15.5781 28.7024 15.5456C28.6878 15.4311 28.7031 15.3147 28.7469 15.208ZM28.3544 12.3803C28.4999 12.6035 28.5621 12.8718 28.5298 13.1371C28.5252 13.1467 28.5181 13.1547 28.5092 13.1603C28.5004 13.1659 28.4901 13.1689 28.4797 13.1689C28.4692 13.1689 28.4589 13.1659 28.4501 13.1603C28.4412 13.1547 28.4341 13.1467 28.4295 13.1371C28.3301 12.9094 28.2582 12.6704 28.2152 12.4253C28.1873 12.3409 28.3182 12.2874 28.3544 12.3803ZM28.9696 16.4066C28.9377 16.2125 28.9482 16.0138 29.0003 15.8242C29.0024 15.8075 29.0083 15.7914 29.0175 15.7773C29.0267 15.7632 29.0388 15.7513 29.0531 15.7426C29.1036 15.2407 29.124 14.7361 29.1144 14.2317C29.6995 14.2453 30.2841 14.1848 30.8544 14.0516C30.7207 13.9081 30.9156 13.4326 30.9629 13.3172C30.9658 13.3064 30.9716 13.2967 30.9796 13.2891C30.9679 13.2765 30.9613 13.2599 30.9613 13.2427C30.9613 13.2254 30.9679 13.2088 30.9796 13.1962C30.9923 13.179 31.0093 13.1655 31.0289 13.1571C31.0485 13.1486 31.0699 13.1457 31.091 13.1484C31.1996 13.1484 31.2079 13.3032 31.1216 13.3313C31.1245 13.3414 31.1245 13.3521 31.1216 13.3622C31.0869 13.5373 31.0701 13.7155 31.0715 13.894C31.0716 13.9324 31.065 13.9705 31.052 14.0066C32.061 13.7544 32.9926 13.2536 33.7636 12.5491C33.7636 12.5491 33.694 9.11362 34.042 7.88686C33.9028 17.0932 37.8616 18.0723 38.6968 20.3514C37.9279 20.621 37.2118 21.0247 36.581 21.5444L33.2792 21.384L34.6712 18.0076C34.6489 17.9916 34.6339 17.9673 34.6294 17.9401C34.6183 17.7927 34.6239 17.6444 34.6461 17.4983C34.6472 17.477 34.6549 17.4566 34.6681 17.44C34.6814 17.4233 34.6995 17.4114 34.7198 17.4057C34.7402 17.4001 34.7618 17.4012 34.7816 17.4087C34.8013 17.4162 34.8182 17.4299 34.8299 17.4477C34.8445 17.474 34.8575 17.5013 34.8688 17.5293L35.2307 16.6458L33.7302 13.2244L31.5782 14.2767C31.2838 15.2325 31.0971 16.2188 31.0214 17.217C31.0402 17.2233 31.0563 17.236 31.067 17.2529C31.0776 17.2698 31.0822 17.2899 31.0799 17.3098C31.0799 17.4336 31.0799 17.5574 31.0799 17.6784C31.0838 17.6877 31.0858 17.6978 31.0858 17.7079C31.0858 17.7181 31.0838 17.7281 31.0799 17.7375C31.0758 17.7609 31.067 17.7832 31.0541 17.803C31.0411 17.8228 31.0243 17.8398 31.0047 17.8528C30.9882 17.8639 30.9688 17.8698 30.949 17.8697C30.9267 18.2102 30.9073 18.5703 30.9017 18.953C30.9237 18.9558 30.9442 18.9656 30.9602 18.9811C31.0107 19.0525 31.038 19.1381 31.0381 19.2259C31.0549 19.3133 31.0549 19.403 31.0381 19.4904C31.032 19.5203 31.0147 19.5467 30.9898 19.564C30.9649 19.5813 30.9343 19.5882 30.9045 19.5832C30.9045 19.828 30.9045 20.0784 30.9212 20.3401C30.2257 20.5645 29.5779 20.9186 29.0114 21.384H27.174C28.1071 19.8633 28.7184 18.1638 28.9696 16.3926V16.4066ZM34.1589 16.7499C34.1589 16.8174 34.0921 16.8512 34.0392 16.8427C33.9084 16.8202 33.9056 16.6599 33.9112 16.5614C33.9223 16.3886 33.9531 16.2177 34.003 16.0521C34.0108 16.0237 34.0294 15.9997 34.0547 15.9852C34.08 15.9706 34.11 15.9669 34.138 15.9747C34.1661 15.9826 34.1899 16.0013 34.2043 16.0269C34.2186 16.0525 34.2224 16.0828 34.2146 16.1112C34.1622 16.3149 34.1434 16.5259 34.1589 16.7358V16.7499ZM27.4468 19.3581C27.5192 19.4876 27.5582 19.8646 27.3299 19.8646C27.1016 19.8646 27.1406 19.4876 27.2102 19.3581C27.2226 19.3378 27.2401 19.321 27.2608 19.3093C27.2815 19.2977 27.3048 19.2916 27.3285 19.2916C27.3522 19.2916 27.3755 19.2977 27.3962 19.3093C27.4169 19.321 27.4343 19.3378 27.4468 19.3581ZM27.0598 12.6054C27.0932 12.4731 27.2909 12.5294 27.2631 12.6616C27.1907 12.9965 27.2436 13.3369 27.1712 13.6661C27.167 13.6764 27.1599 13.6853 27.1507 13.6915C27.1415 13.6977 27.1307 13.701 27.1197 13.701C27.1086 13.701 27.0979 13.6977 27.0887 13.6915C27.0795 13.6853 27.0724 13.6764 27.0682 13.6661C26.9463 13.3199 26.9433 12.9422 27.0598 12.5941V12.6054ZM26.9652 17.1382C26.9652 17.1113 26.9757 17.0855 26.9945 17.0665C27.0133 17.0476 27.0388 17.0369 27.0654 17.0369C27.092 17.0369 27.1175 17.0476 27.1363 17.0665C27.1551 17.0855 27.1656 17.1113 27.1656 17.1382C27.1907 17.3492 27.2686 17.6446 27.1266 17.8275C27.1189 17.8356 27.1096 17.842 27.0993 17.8464C27.089 17.8508 27.078 17.8531 27.0668 17.8531C27.0556 17.8531 27.0446 17.8508 27.0343 17.8464C27.024 17.842 27.0147 17.8356 27.0069 17.8275C26.8622 17.6334 26.9429 17.3379 26.9652 17.1269V17.1382ZM26.5281 16.7133C26.5521 16.6953 26.582 16.6872 26.6116 16.6908C26.4919 16.5586 26.581 16.3307 26.6589 16.1928C26.7369 16.0549 26.8817 16.1928 26.8566 16.28C26.8343 16.3532 26.8121 16.4235 26.7926 16.4967C26.7871 16.5735 26.7522 16.6452 26.6951 16.6964C26.6853 16.706 26.6725 16.7119 26.6589 16.7133C26.6734 16.7246 26.6841 16.7401 26.6896 16.7577C26.6951 16.7753 26.6951 16.7942 26.6896 16.8118C26.7005 16.8441 26.7098 16.877 26.7174 16.9103C26.7174 17.0031 26.6116 17.0453 26.542 17.0087C26.5147 16.9944 26.4915 16.9731 26.475 16.9469C26.4584 16.9207 26.4489 16.8905 26.4475 16.8595C26.4461 16.8284 26.4528 16.7975 26.4669 16.7698C26.4811 16.7422 26.5022 16.7188 26.5281 16.7021V16.7133ZM26.5281 18.3143C26.5458 18.3092 26.5644 18.3076 26.5827 18.3098C26.601 18.312 26.6187 18.3179 26.6348 18.327C26.6508 18.3362 26.6649 18.3485 26.6763 18.3632C26.6876 18.3779 26.6959 18.3948 26.7007 18.4128C26.7263 18.4717 26.7357 18.5365 26.7279 18.6004C26.72 18.6643 26.6952 18.7249 26.6562 18.7757C26.6379 18.7938 26.6135 18.8039 26.588 18.8039C26.5624 18.8039 26.538 18.7938 26.5197 18.7757C26.4852 18.7394 26.4603 18.6949 26.4474 18.6463C26.4474 18.5928 26.4474 18.5394 26.4307 18.4887C26.4243 18.4701 26.4217 18.4503 26.4232 18.4307C26.4247 18.411 26.4302 18.3918 26.4393 18.3744C26.4485 18.357 26.4611 18.3417 26.4764 18.3294C26.4916 18.3171 26.5092 18.3081 26.5281 18.303V18.3143ZM26.1161 17.8022C26.1006 17.8168 26.0802 17.825 26.059 17.825C26.0378 17.825 26.0174 17.8168 26.0019 17.8022C25.9638 17.7424 25.9386 17.6752 25.9281 17.6048C25.9175 17.5345 25.9218 17.4627 25.9407 17.3942C25.9477 17.3679 25.963 17.3446 25.9844 17.328C26.0058 17.3115 26.032 17.3025 26.059 17.3025C26.086 17.3025 26.1122 17.3115 26.1336 17.328C26.155 17.3446 26.1703 17.3679 26.1773 17.3942C26.1946 17.4611 26.198 17.5308 26.1875 17.599C26.177 17.6673 26.1527 17.7326 26.1161 17.7909V17.8022ZM25.9991 7.87842C26.0089 7.86873 26.0208 7.86138 26.0337 7.85691C26.0467 7.85244 26.0605 7.85096 26.0741 7.85258C26.0877 7.8542 26.1008 7.85887 26.1124 7.86627C26.124 7.87366 26.1338 7.88358 26.1411 7.8953C26.174 7.96352 26.1842 8.04066 26.1702 8.1152C26.1561 8.18974 26.1186 8.2577 26.0632 8.30891C26.0529 8.31713 26.0401 8.3216 26.027 8.3216C26.0139 8.3216 26.0011 8.31713 25.9908 8.30891C25.9439 8.24675 25.9191 8.17037 25.9207 8.09219C25.9222 8.01402 25.9498 7.93867 25.9991 7.87842ZM25.5454 18.6407C25.5455 18.6965 25.5318 18.7515 25.5056 18.8007C25.4793 18.8498 25.4413 18.8915 25.395 18.922C25.3648 18.938 25.3297 18.942 25.2967 18.9331C25.2637 18.9243 25.2352 18.9033 25.2169 18.8742C25.1948 18.8252 25.1834 18.7719 25.1834 18.718C25.1834 18.6642 25.1948 18.6109 25.2169 18.5619C25.2371 18.4649 25.2679 18.3706 25.3087 18.2805C25.3228 18.2585 25.3428 18.2409 25.3664 18.2299C25.3899 18.2189 25.4161 18.215 25.4419 18.2185C25.4676 18.2221 25.4918 18.233 25.5116 18.2499C25.5314 18.2669 25.546 18.2892 25.5537 18.3143C25.572 18.4226 25.5691 18.5335 25.5454 18.6407ZM25.2865 2.85604C25.3226 2.7238 25.5454 2.74631 25.5314 2.88981C25.5175 3.0333 25.5314 3.22463 25.4201 3.32592C25.4078 3.33823 25.3929 3.34755 25.3765 3.35318C25.3602 3.35882 25.3427 3.36062 25.3256 3.35845C25.3084 3.35628 25.292 3.3502 25.2775 3.34067C25.263 3.33113 25.2508 3.3184 25.2419 3.30341C25.2069 3.15345 25.2225 2.99594 25.2865 2.85604ZM25.37 7.03433C25.228 7.03433 25.2447 6.75296 25.2419 6.66574C25.2419 6.52787 25.4424 6.53068 25.4535 6.66574C25.4591 6.75296 25.5147 7.03433 25.37 7.03433ZM25.1807 8.821C25.1791 8.69529 25.2038 8.57065 25.253 8.45522C25.2976 8.36519 25.4145 8.40176 25.4451 8.48055C25.48 8.60587 25.4885 8.73717 25.4702 8.86602C25.4727 8.91903 25.4633 8.97193 25.4425 9.02069C25.4218 9.06944 25.3903 9.11277 25.3505 9.14738C25.337 9.15682 25.321 9.16188 25.3045 9.16188C25.2881 9.16188 25.2721 9.15682 25.2586 9.14738C25.1695 9.07141 25.1751 8.9251 25.1807 8.821ZM24.4986 15.3177C24.4986 15.2221 24.5153 15.0814 24.6155 15.0364C24.841 14.9323 24.8215 15.6357 24.802 15.7398C24.7913 15.7722 24.7707 15.8004 24.7433 15.8204C24.7158 15.8404 24.6828 15.8512 24.6489 15.8512C24.6151 15.8512 24.5821 15.8404 24.5546 15.8204C24.5271 15.8004 24.5066 15.7722 24.4958 15.7398C24.4757 15.5998 24.4767 15.4575 24.4986 15.3177ZM24.3232 16.2856C24.329 16.3059 24.3293 16.3274 24.3241 16.3479C24.3189 16.3684 24.3083 16.387 24.2935 16.402C24.2788 16.4169 24.2603 16.4276 24.24 16.4328C24.2198 16.4381 24.1985 16.4378 24.1784 16.4319C24.1449 16.422 24.1155 16.4012 24.0949 16.3727C24.0743 16.3443 24.0635 16.3097 24.0643 16.2744C24.0643 16.0915 24.3371 16.1337 24.3204 16.2856H24.3232ZM22.6779 3.06144C22.7252 2.94608 22.895 2.97703 22.8895 3.08676C22.9143 3.21354 22.9008 3.34495 22.8505 3.46379C22.8479 3.47309 22.8429 3.48155 22.8361 3.48835C22.8293 3.49515 22.8208 3.50005 22.8116 3.5026C22.8024 3.50515 22.7926 3.50524 22.7834 3.50288C22.7741 3.50052 22.7656 3.49578 22.7586 3.48912C22.7083 3.43179 22.674 3.36194 22.6593 3.28675C22.6447 3.21157 22.6501 3.13379 22.6751 3.06144H22.6779ZM21.993 1.12564C22.0209 1.06093 22.1155 1.08625 22.1322 1.14252C22.2599 1.57551 22.3071 2.02865 22.2714 2.47901C22.271 2.49968 22.2639 2.51965 22.2513 2.53593C22.2387 2.55221 22.2212 2.56392 22.2015 2.5693C22.1817 2.57469 22.1608 2.57347 22.1418 2.56581C22.1227 2.55816 22.1067 2.54448 22.096 2.52684C21.9736 2.31695 21.9006 2.08138 21.8827 1.83839C21.8649 1.5954 21.9026 1.35152 21.993 1.12564ZM21.4696 2.67315C21.4696 2.50434 21.748 2.50434 21.7286 2.67315C21.7286 2.79133 21.7286 2.98266 21.6255 3.06144C21.6191 3.06825 21.6113 3.07366 21.6027 3.07736C21.5941 3.08106 21.5848 3.08297 21.5754 3.08297C21.5661 3.08297 21.5568 3.08106 21.5482 3.07736C21.5396 3.07366 21.5318 3.06825 21.5253 3.06144C21.4362 2.96578 21.4613 2.79414 21.4696 2.67315ZM20.9129 4.09405C20.9404 4.09839 20.9655 4.11254 20.9837 4.13395C21.0018 4.15537 21.0118 4.18263 21.0118 4.21082C21.0118 4.23901 21.0018 4.26627 20.9837 4.28768C20.9655 4.3091 20.9404 4.32325 20.9129 4.32759C20.8854 4.32235 20.8606 4.30732 20.8432 4.28523C20.8257 4.26314 20.8167 4.23545 20.8177 4.20719C20.8187 4.17893 20.8297 4.15197 20.8487 4.13122C20.8677 4.11046 20.8934 4.09727 20.9212 4.09405H20.9129ZM20.7096 5.74286C20.7098 5.65627 20.7288 5.57078 20.7653 5.49244C20.7713 5.48317 20.7792 5.47534 20.7885 5.46949C20.7978 5.46364 20.8083 5.45991 20.8191 5.45857C20.83 5.45723 20.841 5.45831 20.8515 5.46173C20.8619 5.46515 20.8714 5.47083 20.8794 5.47837C20.9321 5.55602 20.9585 5.64881 20.9546 5.74286C20.9685 5.84223 20.9436 5.94317 20.885 6.02422C20.874 6.03548 20.8605 6.04405 20.8457 6.04926C20.8309 6.05447 20.8151 6.05619 20.7995 6.05429C20.7839 6.05239 20.769 6.04692 20.7558 6.0383C20.7427 6.02967 20.7316 6.01812 20.7235 6.00453C20.6958 5.91984 20.6938 5.82867 20.718 5.74286H20.7096ZM20.5036 10.6442C20.4646 10.7624 20.2753 10.7793 20.2475 10.6442C20.2261 10.5464 20.2214 10.4455 20.2336 10.346C20.2339 10.3203 20.2426 10.2955 20.2582 10.2752C20.2738 10.2549 20.2955 10.2403 20.3201 10.2337C20.3446 10.227 20.3707 10.2286 20.3942 10.2382C20.4178 10.2478 20.4376 10.2649 20.4507 10.2869C20.4877 10.3376 20.5125 10.3962 20.5231 10.4583C20.5337 10.5203 20.5299 10.584 20.512 10.6442H20.5036ZM20.2252 2.6C20.2252 2.47057 20.4312 2.47338 20.4229 2.6C20.4317 2.73266 20.4038 2.86518 20.3421 2.98266C20.3364 2.98973 20.3292 2.99542 20.321 2.99933C20.3128 3.00324 20.3039 3.00527 20.2948 3.00527C20.2858 3.00527 20.2768 3.00324 20.2686 2.99933C20.2605 2.99542 20.2532 2.98973 20.2475 2.98266C20.2051 2.85938 20.2003 2.72609 20.2336 2.6H20.2252ZM20.1835 6.48848C20.2057 6.34498 20.4257 6.38718 20.4284 6.52224C20.4507 6.69596 20.4507 6.87186 20.4284 7.04558C20.422 7.06742 20.4094 7.08691 20.3922 7.10169C20.3751 7.11648 20.354 7.12592 20.3317 7.1289C20.3093 7.13187 20.2866 7.12825 20.2662 7.11845C20.2458 7.10866 20.2287 7.09313 20.2169 7.07372C20.1501 6.88569 20.1414 6.68163 20.1918 6.48848H20.1835ZM20.1194 9.00389C20.1167 8.95739 20.1255 8.91094 20.1449 8.86871C20.1644 8.82647 20.1939 8.78978 20.2308 8.76191C20.331 8.69438 20.4229 8.85476 20.4452 8.9251C20.4713 8.98905 20.4804 9.05879 20.4716 9.12739C20.4628 9.196 20.4364 9.26109 20.395 9.3162C20.3659 9.34474 20.327 9.36069 20.2865 9.36069C20.2459 9.36069 20.207 9.34474 20.1779 9.3162C20.1459 9.27176 20.124 9.22069 20.1139 9.16668C20.1038 9.11268 20.1057 9.05707 20.1194 9.00389ZM19.7854 11.5165C19.8028 11.5075 19.8224 11.5036 19.8419 11.5054C19.8614 11.5073 19.8799 11.5147 19.8954 11.5268C19.9109 11.5389 19.9226 11.5552 19.9293 11.5738C19.9359 11.5924 19.9372 11.6125 19.9329 11.6318C19.9191 11.6844 19.9191 11.7397 19.9329 11.7922C19.9997 11.9582 19.7213 12.0426 19.6545 11.8682C19.628 11.8029 19.6267 11.7299 19.651 11.6637C19.6752 11.5975 19.7232 11.543 19.7854 11.5109V11.5165ZM19.2091 8.74784C19.2016 8.76135 19.1911 8.77289 19.1784 8.78153C19.1658 8.79018 19.1512 8.79568 19.1361 8.7976C19.1209 8.79952 19.1055 8.79779 19.0911 8.79257C19.0767 8.78735 19.0637 8.77877 19.0532 8.76754C18.9585 8.68876 18.9808 8.53682 18.9975 8.42709C19.0142 8.31735 19.2508 8.32298 19.2369 8.45804C19.2447 8.55554 19.2352 8.65366 19.2091 8.74784ZM19.2341 6.85144C19.2757 6.93945 19.2985 7.03532 19.3009 7.1328C19.3009 7.20877 19.2731 7.31006 19.1868 7.32976C18.9947 7.36634 19.0142 7.02588 18.9864 6.91334C18.9813 6.88129 18.9883 6.84848 19.006 6.82142C19.0238 6.79436 19.0509 6.77502 19.0821 6.76723C19.1133 6.75944 19.1462 6.76378 19.1743 6.77937C19.2025 6.79497 19.2238 6.82069 19.2341 6.85144ZM19.0225 2.96578C19.0474 3.01802 19.0582 3.07597 19.0538 3.13378C19.0494 3.19158 19.03 3.24719 18.9975 3.29497C18.9944 3.30086 18.9898 3.3058 18.9842 3.30924C18.9785 3.31268 18.9721 3.31449 18.9655 3.31449C18.9589 3.31449 18.9524 3.31268 18.9468 3.30924C18.9411 3.3058 18.9365 3.30086 18.9335 3.29497C18.8969 3.19889 18.878 3.09686 18.8778 2.99391C18.875 2.89543 18.9947 2.89543 19.0225 2.96578ZM18.5493 11.9329C18.4697 11.7871 18.4213 11.6261 18.4073 11.4602C18.4046 11.4502 18.4038 11.4398 18.405 11.4295C18.4063 11.4193 18.4095 11.4093 18.4145 11.4003C18.4196 11.3913 18.4263 11.3834 18.4344 11.377C18.4425 11.3706 18.4517 11.3659 18.4616 11.3631C18.4715 11.3604 18.4818 11.3596 18.4919 11.3608C18.5021 11.3621 18.5119 11.3654 18.5208 11.3705C18.5298 11.3756 18.5376 11.3824 18.5439 11.3905C18.5502 11.3987 18.5549 11.408 18.5576 11.418C18.6318 11.5669 18.6745 11.7298 18.6829 11.8963C18.6824 11.912 18.6769 11.9271 18.6673 11.9394C18.6577 11.9516 18.6444 11.9605 18.6295 11.9646C18.6145 11.9687 18.5986 11.9678 18.5842 11.9621C18.5698 11.9564 18.5575 11.9462 18.5493 11.9329ZM18.3739 3.79299C18.4149 3.91531 18.4356 4.04367 18.4351 4.17283C18.4351 4.21223 18.3739 4.23192 18.3572 4.19253C18.3261 4.13463 18.3018 4.07325 18.2848 4.00964C18.2848 3.94493 18.2653 3.8774 18.257 3.80987C18.2486 3.74234 18.3739 3.7339 18.3739 3.79299ZM18.3043 5.31237C18.3043 5.19138 18.5103 5.13792 18.5326 5.28142C18.5604 5.47837 18.591 5.67251 18.605 5.87228C18.6454 6.0547 18.6187 6.24577 18.5298 6.40969C18.5208 6.42373 18.5088 6.43562 18.4948 6.44454C18.4808 6.45345 18.4651 6.45918 18.4486 6.46132C18.4322 6.46346 18.4155 6.46197 18.3997 6.45694C18.3839 6.45191 18.3694 6.44347 18.3572 6.4322C18.14 6.15365 18.2737 5.6275 18.3126 5.31237H18.3043ZM18.257 7.47326C18.282 7.29318 18.5883 7.3382 18.566 7.51546C18.5642 7.69278 18.5483 7.86966 18.5187 8.04443C18.5187 8.08174 18.504 8.11752 18.4779 8.14391C18.4518 8.17029 18.4164 8.18511 18.3795 8.18511C18.3425 8.18511 18.3071 8.17029 18.281 8.14391C18.2549 8.11752 18.2403 8.08174 18.2403 8.04443C18.2039 7.85471 18.2125 7.65898 18.2653 7.47326H18.257ZM17.9117 8.62967C17.9117 8.78442 17.9841 9.0067 17.8589 9.13331C17.8479 9.14132 17.8348 9.14563 17.8213 9.14563C17.8078 9.14563 17.7946 9.14132 17.7837 9.13331C17.6167 9.03765 17.6473 8.78161 17.6584 8.62123C17.6595 8.58616 17.6744 8.55296 17.6997 8.52896C17.725 8.50495 17.7587 8.49209 17.7934 8.49321C17.8281 8.49433 17.861 8.50933 17.8847 8.53492C17.9085 8.56052 17.9212 8.5946 17.9201 8.62967H17.9117ZM17.6111 4.72994C17.6361 4.6399 17.7893 4.62583 17.806 4.72994C17.8115 4.77102 17.8115 4.81266 17.806 4.85374C17.8075 4.86116 17.8075 4.86883 17.806 4.87625C17.806 4.92971 17.806 4.98317 17.806 5.03381C17.8254 5.11613 17.8254 5.20191 17.806 5.28423C17.8015 5.2973 17.794 5.30908 17.784 5.31852C17.7741 5.32797 17.762 5.3348 17.7488 5.33841C17.7356 5.34202 17.7217 5.3423 17.7084 5.33923C17.695 5.33616 17.6827 5.32984 17.6723 5.32081C17.5387 5.19419 17.561 4.90157 17.6111 4.72994ZM14.2202 10.8496C14.2991 10.9238 14.3502 11.0232 14.365 11.131C14.3719 11.1795 14.3635 11.229 14.341 11.2724C14.3185 11.3159 14.2831 11.351 14.2397 11.373C14.2267 11.3776 14.2125 11.3782 14.1992 11.3747C14.1858 11.3712 14.1737 11.3638 14.1645 11.3533C14.1257 11.3028 14.1016 11.2424 14.0949 11.1788C14.0825 11.1147 14.058 11.0535 14.0226 10.9988C13.9363 10.8862 14.1228 10.7512 14.2202 10.8496ZM13.6968 9.9746C13.6968 10.0562 13.6968 10.256 13.5771 10.256C13.4574 10.256 13.463 10.0534 13.4574 9.9746C13.4407 9.81985 13.7108 9.81985 13.6968 9.9746ZM13.0844 11.5868C13.0604 11.5997 13.033 11.6048 13.0061 11.6012C12.9792 11.5977 12.954 11.5858 12.934 11.5671C12.9093 11.5394 12.8937 11.5046 12.8894 11.4675C12.8851 11.4304 12.8923 11.3929 12.91 11.3601C12.9278 11.3273 12.9552 11.3009 12.9884 11.2846C13.0216 11.2683 13.059 11.2628 13.0955 11.2689C13.2486 11.3026 13.1874 11.5362 13.0844 11.5868ZM12.9424 10.6921C12.9424 10.5542 13.1651 10.5542 13.154 10.6921C13.1546 10.7252 13.1448 10.7577 13.1261 10.7849C13.1179 10.7983 13.1064 10.8093 13.0927 10.817C13.0791 10.8246 13.0638 10.8286 13.0482 10.8286C13.0326 10.8286 13.0172 10.8246 13.0036 10.817C12.99 10.8093 12.9785 10.7983 12.9702 10.7849C12.9527 10.7571 12.9431 10.725 12.9424 10.6921ZM12.8394 7.31569C12.8394 7.19189 12.8394 7.03433 12.9674 6.96117C13.1957 6.84862 13.1874 7.69553 13.1818 7.80527C13.1798 7.84325 13.1647 7.87931 13.1391 7.90723C13.1135 7.93515 13.0791 7.95316 13.0418 7.95817C13.0045 7.96317 12.9667 7.95485 12.9348 7.93464C12.9029 7.91443 12.879 7.8836 12.8672 7.84747C12.8289 7.66443 12.8195 7.47639 12.8394 7.29037V7.31569ZM12.3522 6.24931C12.3482 6.15237 12.3672 6.05587 12.4079 5.96795C12.4215 5.94699 12.4409 5.9305 12.4637 5.92049C12.4865 5.91047 12.5116 5.90736 12.5361 5.91153C12.5606 5.91571 12.5833 5.92699 12.6016 5.944C12.6199 5.96101 12.6328 5.98301 12.6389 6.00734C12.6594 6.0843 12.666 6.16436 12.6584 6.24369C12.6645 6.33822 12.6561 6.43314 12.6334 6.52505C12.6247 6.55563 12.6065 6.58252 12.5813 6.60167C12.5562 6.62082 12.5256 6.63118 12.4942 6.63118C12.4627 6.63118 12.4321 6.62082 12.407 6.60167C12.3819 6.58252 12.3636 6.55563 12.355 6.52505C12.339 6.42541 12.3381 6.32391 12.3522 6.22399V6.24931ZM12.1517 11.7106C12.174 11.5868 12.3466 11.6093 12.38 11.7106C12.4429 11.8684 12.464 12.0401 12.4413 12.2086C12.43 12.2366 12.4107 12.2605 12.3859 12.2774C12.3611 12.2942 12.3319 12.3032 12.3021 12.3032C12.2722 12.3032 12.243 12.2942 12.2182 12.2774C12.1934 12.2605 12.1742 12.2366 12.1629 12.2086C12.1145 12.0381 12.1107 11.8578 12.1517 11.6853V11.7106ZM11.8121 5.00568C11.8344 4.87625 12.0404 4.9072 12.0348 5.03663C12.0449 5.18589 12.0231 5.3356 11.9708 5.47556C11.9588 5.49561 11.9413 5.5117 11.9204 5.52188C11.8995 5.53206 11.8761 5.5359 11.8531 5.53292C11.8302 5.52994 11.8085 5.52027 11.7908 5.50509C11.7732 5.48992 11.7603 5.46988 11.7536 5.44742C11.7427 5.29767 11.7626 5.14726 11.8121 5.00568ZM11.311 6.01297C11.233 6.10863 11.2943 6.22962 11.2442 6.33372C11.2286 6.35974 11.2034 6.37847 11.1742 6.38585C11.145 6.39322 11.1141 6.38865 11.0883 6.37312C10.8906 6.2662 11.0131 5.95388 11.1356 5.83852C11.1585 5.81501 11.1897 5.80166 11.2223 5.8014C11.2549 5.80113 11.2863 5.81398 11.3096 5.83711C11.3329 5.86025 11.3461 5.89177 11.3463 5.92475C11.3466 5.95773 11.3339 5.98946 11.311 6.01297ZM11.0103 4.32477C11.0178 4.31215 11.0287 4.30199 11.0418 4.29553C11.0549 4.28907 11.0695 4.28658 11.084 4.28837C11.0984 4.29016 11.112 4.29614 11.1232 4.3056C11.1343 4.31506 11.1425 4.32758 11.1467 4.34165C11.1601 4.43486 11.1676 4.52884 11.169 4.62302C11.169 4.70462 11.2052 4.78621 11.1495 4.85374C11.142 4.86222 11.1322 4.86832 11.1214 4.87131C11.1105 4.87431 11.099 4.87407 11.0883 4.87062C10.9101 4.81153 10.9268 4.43732 11.0103 4.31914V4.32477ZM9.84106 11.8654C9.84106 11.8982 9.82815 11.9297 9.80518 11.9529C9.78221 11.9761 9.75105 11.9892 9.71856 11.9892C9.68608 11.9892 9.65492 11.9761 9.63195 11.9529C9.60898 11.9297 9.59607 11.8982 9.59607 11.8654C9.59329 11.8185 9.59329 11.7715 9.59607 11.7247C9.59607 11.6926 9.60868 11.6618 9.63113 11.6391C9.65358 11.6165 9.68403 11.6037 9.71578 11.6037C9.74753 11.6037 9.77798 11.6165 9.80043 11.6391C9.82288 11.6618 9.83549 11.6926 9.83549 11.7247C9.84121 11.7695 9.84307 11.8147 9.84106 11.8597V11.8654ZM9.61556 10.0027C9.62442 9.98757 9.63704 9.975 9.65217 9.96627C9.66731 9.95753 9.68443 9.95294 9.70186 9.95294C9.71929 9.95294 9.73641 9.95753 9.75155 9.96627C9.76668 9.975 9.7793 9.98757 9.78816 10.0027C9.83581 10.1193 9.84934 10.2472 9.82714 10.3713C9.82714 10.4501 9.79373 10.588 9.69072 10.588C9.58772 10.588 9.56545 10.4332 9.56266 10.3544C9.54771 10.2327 9.566 10.1091 9.61556 9.99711V10.0027ZM9.22302 8.82944C9.23503 8.80939 9.25253 8.7933 9.27342 8.78312C9.2943 8.77294 9.31766 8.7691 9.34065 8.77208C9.36365 8.77506 9.3853 8.78473 9.40296 8.7999C9.42063 8.81508 9.43355 8.83512 9.44017 8.85758C9.46197 8.94102 9.46857 9.02778 9.45966 9.11362C9.46457 9.19873 9.43663 9.28245 9.3817 9.34715C9.3651 9.35928 9.34513 9.36581 9.32463 9.36581C9.30414 9.36581 9.28417 9.35928 9.26756 9.34715C9.10609 9.26837 9.13393 8.95043 9.22302 8.82381V8.82944ZM8.71912 9.72418C8.7772 9.80661 8.81011 9.90443 8.81378 10.0055C8.81363 10.0356 8.80375 10.0648 8.78565 10.0887C8.76755 10.1126 8.74221 10.1299 8.7135 10.1378C8.6848 10.1458 8.6543 10.1441 8.62666 10.1329C8.59903 10.1217 8.57577 10.1017 8.56044 10.0759C8.50818 9.99178 8.48201 9.89379 8.48527 9.79452C8.48461 9.7666 8.49291 9.73921 8.50892 9.71645C8.52493 9.69369 8.5478 9.67677 8.57411 9.66822C8.60042 9.65967 8.62876 9.65996 8.65489 9.66903C8.68103 9.6781 8.70356 9.69548 8.71912 9.71856V9.72418Z" fill="#FFC900"/>
<path d="M15.9491 18.7504C16.492 18.4714 17.0826 18.2995 17.6891 18.244L17.7142 18.0554C17.7476 17.8444 18.0649 17.9626 18.0288 18.1286V18.2046C18.4563 18.1654 18.8859 18.1532 19.3149 18.168C19.5565 17.92 19.721 17.6061 19.7882 17.2648C19.7242 17.2648 19.6852 17.1945 19.6657 17.141C19.6434 17.0715 19.6434 16.9967 19.6657 16.9272C19.6713 16.9053 19.6834 16.8858 19.7003 16.8711C19.7173 16.8565 19.7383 16.8474 19.7605 16.8453C19.7827 16.8431 19.805 16.848 19.8244 16.8591C19.8438 16.8702 19.8594 16.8871 19.8689 16.9075C20.0064 16.0964 20.0651 15.2737 20.0443 14.4511L20.6457 13.562C20.4007 13.4326 20.1557 13.3116 19.9135 13.1991C19.9135 13.1991 19.9135 13.1991 19.9135 13.2131C19.9424 13.3126 19.9546 13.4163 19.9497 13.5198C19.9594 13.5851 19.9594 13.6515 19.9497 13.7168C19.9335 13.7659 19.9121 13.8131 19.8857 13.8575C19.8772 13.8714 19.8653 13.883 19.8512 13.891C19.8371 13.899 19.8211 13.9032 19.8049 13.9032C19.7887 13.9032 19.7728 13.899 19.7586 13.891C19.7445 13.883 19.7326 13.8714 19.7242 13.8575C19.6971 13.8055 19.6757 13.7508 19.6602 13.6943C19.6546 13.6363 19.6546 13.5778 19.6602 13.5198C19.6519 13.4017 19.6709 13.2832 19.7158 13.1737C19.7263 13.1556 19.7417 13.1409 19.7604 13.1315C19.5794 13.0499 19.4012 12.974 19.2286 12.9036C19.2029 12.9092 19.1762 12.9068 19.1518 12.8967C19.1275 12.8867 19.1067 12.8695 19.0922 12.8474C17.9895 12.4039 16.8408 12.0877 15.668 11.9048L16.1774 15.8073C15.5266 16.3304 14.9439 16.9345 14.443 17.6053C13.7248 18.6097 14.9052 21.4375 15.5065 21.2292C16.1078 21.021 15.9491 18.7504 15.9491 18.7504ZM19.5961 14.9126C19.6004 14.8847 19.6144 14.8593 19.6356 14.841C19.6568 14.8227 19.6838 14.8126 19.7117 14.8126C19.7395 14.8126 19.7665 14.8227 19.7877 14.841C19.8089 14.8593 19.8229 14.8847 19.8272 14.9126C19.8439 15.1208 19.8634 15.329 19.8662 15.5372C19.8611 15.575 19.8427 15.6097 19.8143 15.6348C19.7859 15.6599 19.7494 15.6738 19.7117 15.6738C19.6739 15.6738 19.6374 15.6599 19.609 15.6348C19.5806 15.6097 19.5622 15.575 19.5571 15.5372C19.5599 15.3403 19.5766 15.1321 19.5961 14.9126ZM19.1061 14.5693C19.1368 14.499 19.2565 14.4511 19.2955 14.544C19.3478 14.6582 19.3652 14.7855 19.3456 14.9098C19.3409 14.9268 19.3319 14.9423 19.3195 14.9547C19.3071 14.9671 19.2917 14.9761 19.2748 14.9806C19.2579 14.9852 19.2402 14.9852 19.2233 14.9806C19.2064 14.9761 19.191 14.9672 19.1785 14.9548C19.1359 14.9038 19.1068 14.8427 19.0942 14.7772C19.0815 14.7117 19.0856 14.644 19.1061 14.5806V14.5693ZM18.7414 15.2221C18.7355 15.2679 18.7203 15.3119 18.6969 15.3515C18.688 15.3667 18.6754 15.3793 18.6603 15.388C18.6452 15.3967 18.628 15.4013 18.6106 15.4013C18.5932 15.4013 18.576 15.3967 18.5609 15.388C18.5458 15.3793 18.5332 15.3667 18.5243 15.3515C18.4993 15.3124 18.4831 15.2682 18.477 15.2221C18.4782 15.1748 18.4838 15.1277 18.4937 15.0814C18.5006 15.0558 18.5156 15.0331 18.5365 15.017C18.5574 15.0008 18.5829 14.9921 18.6092 14.9921C18.6355 14.9921 18.6611 15.0008 18.6819 15.017C18.7028 15.0331 18.7179 15.0558 18.7247 15.0814C18.7353 15.1314 18.7409 15.1823 18.7414 15.2333V15.2221ZM18.4269 13.2863V13.2807C18.4312 13.2658 18.4392 13.2522 18.4502 13.2414C18.4612 13.2306 18.4748 13.2228 18.4896 13.2188C18.5045 13.2149 18.5201 13.2149 18.5349 13.2188C18.5498 13.2227 18.5634 13.2305 18.5744 13.2413C18.6553 13.357 18.6964 13.4964 18.6913 13.638C18.7203 13.7997 18.6906 13.9665 18.6078 14.1079C18.6021 14.1172 18.5941 14.1249 18.5846 14.1302C18.5751 14.1355 18.5644 14.1383 18.5535 14.1383C18.5427 14.1383 18.532 14.1355 18.5225 14.1302C18.513 14.1249 18.505 14.1172 18.4992 14.1079C18.4089 13.848 18.384 13.5695 18.4269 13.2975V13.2863ZM18.4046 17.3042C18.4352 17.1579 18.644 17.2226 18.6217 17.3633C18.5995 17.504 18.6217 17.6728 18.5215 17.7516C18.512 17.7579 18.5009 17.7612 18.4895 17.7612C18.4781 17.7612 18.467 17.7579 18.4575 17.7516C18.3183 17.6869 18.374 17.4449 18.4046 17.3155V17.3042ZM17.8645 14.3499C17.8755 14.3318 17.8908 14.3169 17.9091 14.3066C17.9274 14.2962 17.948 14.2908 17.9689 14.2908C17.9898 14.2908 18.0104 14.2962 18.0287 14.3066C18.047 14.3169 18.0623 14.3318 18.0733 14.3499C18.1079 14.4302 18.1199 14.5187 18.1081 14.6055C18.0963 14.6923 18.0612 14.7742 18.0065 14.8422C17.9933 14.8537 17.9765 14.86 17.9592 14.86C17.9418 14.86 17.925 14.8537 17.9118 14.8422C17.8603 14.7723 17.8286 14.6895 17.8203 14.6027C17.8119 14.5159 17.8272 14.4285 17.8645 14.3499ZM17.8645 15.993C17.8755 15.974 17.8917 15.9586 17.9113 15.9488C17.9308 15.939 17.9527 15.9352 17.9744 15.9379C17.996 15.9406 18.0164 15.9497 18.033 15.964C18.0496 15.9783 18.0617 15.9972 18.0677 16.0184C18.09 16.1365 18.1095 16.3391 18.0093 16.4235C17.9949 16.438 17.9764 16.4475 17.9563 16.4505C17.9363 16.4536 17.9158 16.45 17.8979 16.4404C17.7504 16.3363 17.7838 16.1028 17.8589 15.979L17.8645 15.993ZM17.1574 15.1714C17.1583 15.151 17.1655 15.1313 17.1779 15.1152C17.1904 15.099 17.2075 15.0872 17.227 15.0814C17.369 15.0279 17.4163 15.2193 17.4441 15.3149C17.477 15.3835 17.495 15.4584 17.497 15.5346C17.4989 15.6108 17.4847 15.6865 17.4553 15.7567C17.4489 15.7677 17.4405 15.7773 17.4305 15.7849C17.4205 15.7926 17.409 15.7982 17.3968 15.8013C17.3847 15.8044 17.372 15.8051 17.3595 15.8032C17.3471 15.8014 17.3352 15.797 17.3244 15.7904C17.149 15.661 17.1407 15.3487 17.1518 15.1574L17.1574 15.1714Z" fill="#FFC900"/>
<path d="M5.48161 6.47148C5.46871 6.49073 5.45023 6.50547 5.42871 6.51368L5.59018 6.63186L5.51223 6.39551C5.50741 6.42272 5.49698 6.44861 5.48161 6.47148Z" fill="#E2E2E2"/>
<path d="M6.70655 2.63077C6.7073 2.64671 6.70266 2.66243 6.6934 2.67535C6.68413 2.68827 6.6708 2.69763 6.65559 2.70188C6.64037 2.70613 6.62418 2.70503 6.60966 2.69876C6.59515 2.69248 6.58317 2.68141 6.57571 2.66735C6.54699 2.62589 6.52448 2.58039 6.50889 2.53229H4.28173L3.45489 0L3.1765 0.894744C3.24106 0.964481 3.28201 1.05316 3.29342 1.14797C3.30007 1.19685 3.29161 1.24661 3.26918 1.29044C3.24675 1.33426 3.21146 1.37 3.16814 1.39276C3.15497 1.39588 3.14125 1.39571 3.12816 1.39228C3.11506 1.38885 3.10299 1.38225 3.09298 1.37307C3.07326 1.34889 3.05816 1.32122 3.04843 1.29147L2.63919 2.53229H0L2.1353 4.0995L1.3196 6.63179L2.40534 5.83553C2.42158 5.77046 2.44204 5.70655 2.46659 5.6442C2.47583 5.62141 2.49119 5.60168 2.51093 5.58724C2.53068 5.57279 2.55402 5.56421 2.57833 5.56245C2.60264 5.5607 2.62696 5.56584 2.64853 5.5773C2.6701 5.58876 2.68808 5.60609 2.70044 5.62732L3.45489 5.06459L5.24498 6.37856C5.18379 6.22129 5.16087 6.05146 5.17816 5.88336C5.17845 5.86314 5.18508 5.84354 5.19708 5.82736C5.20909 5.81118 5.22585 5.79927 5.24498 5.79332C5.26956 5.78636 5.29556 5.78636 5.32014 5.79332L4.76335 4.10513L6.90978 2.53229H6.70377C6.70938 2.56481 6.71032 2.59798 6.70655 2.63077Z" fill="#D4D4D4"/>
</svg>
